<?xml version="1.0" standalone="no"?>
<!DOCTYPE svg PUBLIC "-//W3C//DTD SVG 20010904//EN"
 "http://www.w3.org/TR/2001/REC-SVG-20010904/DTD/svg10.dtd">
<svg version="1.0" xmlns="http://www.w3.org/2000/svg"
 width="153.000000pt" height="124.000000pt" viewBox="0 0 153.000000 124.000000"
 preserveAspectRatio="xMidYMid meet">

<g transform="translate(0.000000,124.000000) scale(0.100000,-0.100000)"
fill="#000000" stroke="none">
<path d="M663 1230 c-133 -24 -254 -91 -350 -193 -217 -233 -217 -601 0 -834
76 -81 151 -130 257 -167 75 -26 98 -30 195 -30 93 1 122 5 190 28 203 69 353
230 405 432 81 314 -95 635 -404 739 -84 28 -213 39 -293 25z m302 -65 c144
-57 255 -158 318 -288 111 -229 69 -483 -109 -664 -80 -82 -194 -145 -299
-164 -254 -48 -521 86 -630 316 -43 91 -59 162 -58 260 1 192 98 373 256 479
111 73 199 96 347 92 86 -3 117 -8 175 -31z"/>
<path d="M385 708 c-3 -8 -5 -53 -3 -99 l3 -84 70 0 c58 0 70 3 73 18 3 14 -5
17 -52 17 l-56 0 0 69 c0 48 -4 72 -15 81 -12 10 -16 9 -20 -2z"/>
<path d="M592 705 c-21 -9 -38 -27 -48 -50 -20 -49 1 -100 51 -120 31 -14 39
-14 70 0 78 32 78 138 1 170 -41 18 -33 18 -74 0z m78 -45 c11 -11 20 -29 20
-40 0 -26 -34 -60 -60 -60 -11 0 -29 9 -40 20 -11 11 -20 29 -20 40 0 11 9 29
20 40 11 11 29 20 40 20 11 0 29 -9 40 -20z"/>
<path d="M813 705 c-37 -16 -53 -42 -53 -85 0 -44 16 -69 53 -85 61 -25 126
11 130 71 2 29 1 29 -53 29 -42 0 -55 -3 -55 -15 0 -10 13 -17 40 -20 l40 -5
-25 -17 c-32 -23 -55 -23 -80 2 -26 26 -25 55 1 81 15 15 29 20 50 15 28 -5
49 9 33 24 -18 16 -50 19 -81 5z"/>
<path d="M1035 706 c-75 -33 -70 -150 8 -175 42 -14 76 -3 106 35 29 37 27 77
-6 113 -34 37 -68 45 -108 27z m77 -43 c37 -33 11 -103 -38 -103 -20 0 -64 41
-64 60 0 4 9 19 21 34 23 30 54 33 81 9z"/>
</g>
</svg>
