<?xml version="1.0" standalone="no"?>
<!DOCTYPE svg PUBLIC "-//W3C//DTD SVG 20010904//EN"
 "http://www.w3.org/TR/2001/REC-SVG-20010904/DTD/svg10.dtd">
<svg version="1.0" xmlns="http://www.w3.org/2000/svg"
 width="1500.000000pt" height="1687.000000pt" viewBox="0 0 1500.000000 1687.000000"
 preserveAspectRatio="xMidYMid meet">

<g transform="translate(0.000000,1687.000000) scale(0.100000,-0.100000)"
fill="#000000" stroke="none">
<path d="M0 8435 l0 -8435 7500 0 7500 0 0 8435 0 8435 -7500 0 -7500 0 0
-8435z m7830 7510 c473 -100 1097 -345 1945 -765 511 -254 905 -468 1470 -803
1391 -824 2500 -1680 2783 -2150 194 -322 345 -1108 416 -2172 129 -1904 21
-4031 -253 -5002 -98 -344 -174 -473 -441 -747 -571 -586 -1679 -1357 -3095
-2154 -497 -280 -1175 -617 -1655 -824 -687 -296 -1173 -438 -1500 -438 -367
0 -923 175 -1775 560 -203 91 -813 394 -1010 501 -1041 564 -1896 1099 -2615
1633 -573 427 -986 816 -1136 1072 -376 642 -564 3121 -408 5399 71 1052 220
1838 407 2157 86 147 305 388 547 601 809 713 2321 1675 3715 2367 890 441
1544 693 2024 780 155 29 408 22 581 -15z"/>
<path d="M7345 15534 c-658 -102 -2089 -766 -3560 -1654 -1324 -799 -2241
-1512 -2458 -1911 -151 -275 -273 -1007 -332 -1984 -34 -568 -39 -788 -40
-1540 0 -756 6 -986 41 -1560 47 -793 136 -1423 250 -1777 70 -219 127 -309
313 -501 390 -402 1090 -917 2056 -1511 1569 -966 3117 -1688 3788 -1767 174
-20 388 18 727 131 1508 501 4360 2184 5282 3117 225 227 286 328 363 597 102
356 186 983 229 1711 34 568 41 806 41 1550 0 744 -7 984 -41 1550 -23 394
-47 648 -90 970 -79 597 -162 907 -295 1101 -65 94 -281 320 -434 451 -466
402 -1178 897 -2005 1393 -1523 914 -2932 1561 -3570 1640 -106 13 -152 12
-265 -6z m406 -188 c811 -166 2667 -1101 4164 -2097 869 -578 1417 -1037 1594
-1336 177 -299 297 -1069 363 -2343 18 -335 18 -1935 0 -2270 -52 -1005 -134
-1662 -257 -2083 -69 -234 -137 -340 -365 -567 -290 -290 -706 -611 -1335
-1029 -1496 -996 -3358 -1933 -4163 -2097 -227 -46 -362 -40 -616 26 -1182
309 -3829 1782 -5112 2847 -170 141 -426 398 -492 496 -65 94 -100 170 -141
302 -126 408 -209 1074 -263 2100 -18 330 -18 1943 0 2275 49 942 125 1595
233 2000 65 242 116 346 246 501 711 848 3769 2683 5298 3180 399 130 578 150
846 95z"/>
<path d="M4949 10628 c-11 -21 -381 -634 -435 -719 l-23 -37 -263 54 c-145 30
-382 79 -528 109 -209 43 -939 194 -1071 221 l-27 6 29 -143 c15 -79 64 -333
109 -564 44 -231 112 -582 150 -780 165 -854 235 -1218 289 -1500 32 -165 89
-461 127 -657 38 -197 70 -354 72 -350 1 5 -29 323 -67 708 -156 1557 -192
1926 -189 1929 2 2 224 18 493 35 270 17 571 36 670 43 l180 12 3 236 2 237
250 588 c137 323 248 590 246 592 -3 2 -10 -7 -17 -20z"/>
<path d="M5052 10630 c20 -32 413 -642 531 -824 l90 -138 -10 -162 c-5 -88 -9
-162 -9 -162 2 -3 401 -42 403 -40 6 5 61 431 57 435 -2 3 -102 32 -222 66
l-217 62 -311 386 c-309 384 -342 425 -312 377z"/>
<path d="M4966 10557 c-10 -45 -55 -253 -101 -462 -46 -209 -125 -569 -176
-800 -50 -231 -95 -423 -98 -427 -3 -4 -208 -18 -455 -32 -246 -14 -450 -26
-451 -28 -2 -2 13 -215 34 -475 l36 -472 -41 -193 c-23 -106 -76 -357 -119
-558 -114 -541 -175 -823 -181 -845 -4 -11 -4 -17 0 -14 4 4 32 89 62 190 100
333 241 800 424 1404 28 93 52 170 53 172 1 1 164 42 362 92 198 50 379 96
401 102 l42 11 6 66 c6 65 87 902 181 1876 25 258 44 471 42 473 -2 1 -11 -34
-21 -80z"/>
<path d="M7585 10624 c-174 -26 -285 -67 -411 -149 -220 -143 -375 -376 -440
-663 -24 -107 -29 -377 -10 -497 38 -230 120 -398 266 -546 84 -84 107 -101
200 -147 147 -73 212 -86 395 -86 177 1 258 19 400 88 310 150 516 460 564
851 68 559 -186 1010 -634 1125 -78 20 -265 34 -330 24z m258 -357 c105 -37
178 -80 255 -151 161 -151 234 -335 234 -586 0 -219 -56 -364 -192 -501 -139
-140 -293 -195 -520 -186 -211 8 -351 68 -484 207 -82 87 -133 176 -172 305
-24 81 -27 106 -27 240 0 135 3 159 27 240 32 107 62 163 124 239 58 70 137
130 222 169 101 46 168 57 320 53 114 -2 147 -7 213 -29z"/>
<path d="M9672 10303 c-700 -959 -867 -1190 -878 -1213 -6 -14 -14 -52 -18
-86 l-5 -61 497 -8 c273 -4 499 -8 502 -10 6 -3 -4 -445 -14 -625 -9 -160 -16
-154 159 -123 77 13 146 30 153 37 11 11 12 51 3 222 -6 115 -12 270 -13 344
l-3 135 185 0 185 0 14 107 c12 87 12 110 1 122 -10 14 -43 16 -201 16 l-189
0 0 715 0 714 -66 21 c-36 11 -68 20 -69 20 -2 0 -111 -147 -243 -327z m106
-690 l2 -453 -349 0 -350 0 207 288 c114 158 261 363 327 455 94 131 124 167
140 165 20 -3 20 -12 23 -455z"/>
<path d="M11330 10615 c-156 -34 -281 -106 -410 -235 -55 -54 -108 -118 -124
-149 -27 -51 -28 -56 -17 -106 34 -151 45 -158 109 -61 81 123 213 234 325
273 64 22 183 23 252 4 70 -21 148 -99 169 -171 36 -120 14 -247 -73 -425
-124 -252 -294 -474 -789 -1029 l-103 -115 15 -30 c9 -16 20 -32 24 -35 5 -3
58 7 118 21 l109 25 505 -11 c278 -6 570 -14 650 -17 192 -8 183 -16 210 176
21 143 71 399 90 453 l10 29 -78 -7 c-42 -4 -79 -9 -81 -11 -2 -2 -16 -42 -31
-89 -64 -197 -134 -256 -327 -275 -54 -5 -238 -10 -410 -10 -287 0 -313 1
-322 18 -7 13 0 27 31 62 557 632 769 932 815 1156 51 249 -100 483 -354 548
-91 24 -235 29 -313 11z"/>
<path d="M5031 10606 c-1 -9 27 -113 94 -356 24 -85 93 -341 155 -568 l112
-414 -21 -285 c-12 -157 -20 -288 -17 -290 4 -4 496 56 503 61 3 3 73 470 70
472 -2 2 -85 7 -186 10 -173 7 -183 8 -191 28 -15 37 -178 462 -320 836 -168
440 -199 518 -199 506z"/>
<path d="M5570 8624 c-96 -13 -248 -33 -336 -45 l-162 -21 -8 -342 c-5 -187
-6 -344 -3 -349 4 -5 663 197 677 208 2 2 72 556 72 573 0 6 -78 -2 -240 -24z"/>
<path d="M4865 8098 c-22 -6 -164 -39 -315 -74 -151 -36 -292 -69 -312 -75
l-38 -10 0 -272 0 -272 -346 -530 c-398 -610 -421 -647 -397 -619 10 12 226
287 481 611 l463 591 177 62 c97 35 213 77 257 94 l80 31 6 120 c4 66 10 173
13 238 8 131 12 125 -69 105z"/>
<path d="M7180 7380 c0 -99 -2 -180 -3 -180 -2 0 -19 8 -38 18 -24 12 -57 17
-114 17 -100 -1 -155 -24 -224 -93 -68 -69 -95 -154 -89 -286 6 -150 60 -234
175 -273 52 -18 236 -14 331 7 l52 12 0 479 0 479 -45 0 -45 0 0 -180z m-31
-231 l31 -11 0 -243 0 -243 -95 -7 c-107 -8 -144 -2 -200 30 -83 48 -118 182
-81 310 21 69 82 139 141 160 48 17 160 19 204 4z"/>
<path d="M8625 7506 c-20 -30 -10 -74 19 -87 31 -15 74 4 82 36 16 62 -67 104
-101 51z"/>
<path d="M7598 7226 c-46 -12 -98 -46 -139 -89 -90 -95 -114 -321 -46 -442 27
-47 94 -100 145 -115 78 -21 305 -4 332 26 4 5 3 24 -2 42 -7 27 -12 31 -27
23 -10 -6 -56 -15 -102 -22 -194 -28 -298 45 -299 209 l0 62 235 0 235 0 0 63
c0 88 -23 148 -74 195 -63 58 -156 75 -258 48z m172 -88 c48 -25 75 -62 85
-120 l7 -38 -196 0 c-108 0 -196 2 -196 5 0 18 43 85 73 113 65 63 152 78 227
40z"/>
<path d="M8205 7229 c-157 -39 -207 -223 -82 -299 18 -11 76 -34 130 -51 117
-38 157 -69 157 -122 0 -52 -38 -92 -101 -107 -57 -14 -154 -7 -207 16 -19 8
-36 14 -37 14 -2 0 -8 -15 -14 -32 -14 -41 -2 -52 77 -69 89 -18 218 -8 272
21 66 37 90 79 90 158 0 64 -1 66 -45 108 -36 35 -62 49 -139 73 -53 16 -109
38 -126 48 -48 28 -57 89 -19 129 34 36 81 47 184 42 l93 -4 10 32 c9 29 7 33
-13 38 -46 12 -191 15 -230 5z"/>
<path d="M8643 7233 c-10 -4 -13 -80 -13 -334 l0 -329 40 0 40 0 0 335 0 335
-27 -1 c-16 0 -34 -3 -40 -6z"/>
<path d="M9036 7228 c-53 -11 -110 -43 -139 -78 -66 -78 -61 -218 9 -288 l34
-34 -20 -33 c-27 -43 -25 -74 6 -120 l25 -37 -23 -16 c-71 -49 -108 -114 -108
-189 0 -102 73 -164 220 -185 183 -25 347 24 386 118 18 43 18 115 0 158 -29
69 -100 103 -278 135 -59 11 -119 25 -134 33 -38 18 -55 53 -43 87 l10 27 112
0 c101 -1 117 2 161 24 27 14 62 41 78 61 52 65 54 198 3 265 l-26 34 70 0
c68 0 71 1 71 23 l0 23 -189 0 c-104 0 -205 -4 -225 -8z m174 -74 c51 -20 74
-61 74 -131 0 -57 -17 -90 -68 -127 -20 -15 -46 -22 -100 -24 -127 -7 -176 34
-176 146 0 46 5 66 22 87 47 60 163 83 248 49z m27 -591 c151 -37 167 -179 26
-227 -72 -25 -221 -22 -284 5 -101 44 -107 147 -14 242 l33 34 89 -19 c48 -10
116 -26 150 -35z"/>
<path d="M9563 7233 c-10 -4 -13 -80 -13 -334 l0 -329 40 0 40 0 0 269 0 269
52 22 c98 42 211 37 254 -11 17 -19 19 -45 24 -283 l5 -261 43 -3 43 -3 -3
273 c-3 312 -5 318 -84 364 -40 23 -58 28 -123 28 -66 0 -84 -4 -138 -32 -34
-18 -65 -32 -68 -32 -3 0 -5 16 -5 35 0 32 -3 35 -27 34 -16 0 -34 -3 -40 -6z"/>
</g>
</svg>
